<?xml version="1.0" encoding="UTF-8" standalone="no"?>
<svg
   xmlns:dc="http://purl.org/dc/elements/1.1/"
   xmlns:cc="http://creativecommons.org/ns#"
   xmlns:rdf="http://www.w3.org/1999/02/22-rdf-syntax-ns#"
   xmlns:svg="http://www.w3.org/2000/svg"
   xmlns="http://www.w3.org/2000/svg"
   xmlns:sodipodi="http://sodipodi.sourceforge.net/DTD/sodipodi-0.dtd"
   xmlns:inkscape="http://www.inkscape.org/namespaces/inkscape"
   width="417"
   height="107"
   viewBox="0 0 417 107"
   version="1.1"
   id="svg16"
   sodipodi:docname="tarjetas-molonas-COLOR LOOP1.svg"
   inkscape:version="0.92.4 (f8dce91, 2019-08-02)">
  <metadata
     id="metadata22">
    <rdf:RDF>
      <cc:Work
         rdf:about="">
        <dc:format>image/svg+xml</dc:format>
        <dc:type
           rdf:resource="http://purl.org/dc/dcmitype/StillImage" />
        <dc:title></dc:title>
      </cc:Work>
    </rdf:RDF>
  </metadata>
  <defs
     id="defs20" />
  <sodipodi:namedview
     pagecolor="#ffffff"
     bordercolor="#666666"
     borderopacity="1"
     objecttolerance="10"
     gridtolerance="10"
     guidetolerance="10"
     inkscape:pageopacity="0"
     inkscape:pageshadow="2"
     inkscape:window-width="1853"
     inkscape:window-height="1025"
     id="namedview18"
     showgrid="false"
     inkscape:zoom="7.54"
     inkscape:cx="122.48012"
     inkscape:cy="68.125857"
     inkscape:window-x="67"
     inkscape:window-y="27"
     inkscape:window-maximized="1"
     inkscape:current-layer="svg16" />
  <path
     style="fill:#a2deaf;fill-rule:evenodd"
     inkscape:connector-curvature="0"
     id="path2"
     d="m 98.814,3.315 c 2.825,-0.498 5.4,0.068 7.726,1.696 2.326,1.629 3.739,3.856 4.237,6.68 l 10.758,61.017 c 0.499,2.825 -0.067,5.4 -1.695,7.727 -1.63,2.326 -3.856,3.738 -6.68,4.236 l -88.136,15.54 c -2.825,0.499 -5.4,-0.067 -7.726,-1.695 -2.327,-1.629 -3.739,-3.856 -4.237,-6.68 L 2.302,30.818 c -0.498,-2.825 0.068,-5.4 1.696,-7.727 1.629,-2.326 3.856,-3.738 6.68,-4.236 z" />
  <path
     style="fill:#114e4e;fill-rule:evenodd"
     inkscape:connector-curvature="0"
     id="path4"
     d="m 97.4,1.9 c 2.824,-0.497 5.4,0.068 7.726,1.697 2.326,1.628 3.738,3.855 4.236,6.68 l 10.759,61.017 c 0.498,2.825 -0.067,5.4 -1.696,7.726 -1.629,2.326 -3.855,3.738 -6.68,4.236 L 23.609,98.797 c -2.824,0.498 -5.4,-0.067 -7.726,-1.696 -2.326,-1.629 -3.738,-3.855 -4.236,-6.68 L 0.887,29.404 C 0.39,26.579 0.955,24.004 2.584,21.678 4.213,19.352 6.439,17.94 9.264,17.441 L 97.4,1.901 Z" />
  <path
     style="fill:#ffffff;fill-rule:evenodd"
     inkscape:connector-curvature="0"
     id="path6"
     d="M 113.341,72.49 102.582,11.473 C 102.408,10.483 101.947,9.728 101.199,9.204 100.452,8.681 99.584,8.506 98.595,8.68 L 10.46,24.221 C 9.47,24.395 8.715,24.856 8.191,25.604 7.668,26.352 7.493,27.22 7.668,28.209 l 10.758,61.016 c 0.175,0.99 0.636,1.745 1.383,2.269 0.748,0.523 1.616,0.698 2.605,0.523 l 88.135,-15.54 c 0.989,-0.174 1.745,-0.635 2.269,-1.383 0.523,-0.748 0.698,-1.616 0.523,-2.605 z" />
  <path
     style="fill:#a2deaf;fill-rule:evenodd"
     inkscape:connector-curvature="0"
     id="path10"
     d="m 56.766,51.445 c 3.871,0.483 7.082,2.174 9.632,5.074 1.86,2.293 3.028,4.781 3.501,7.465 l 0.523,2.966 c 0.448,2.542 -0.084,4.894 -1.596,7.054 -1.512,2.16 -3.54,3.464 -6.082,3.912 l -28.814,5.08 c -2.542,0.449 -4.893,-0.083 -7.053,-1.596 -2.16,-1.512 -3.464,-3.54 -3.912,-6.082 l -0.523,-2.966 c -0.474,-2.684 -0.228,-5.421 0.736,-8.212 1.405,-3.598 3.843,-6.285 7.316,-8.063 -3.09,-2.659 -4.984,-5.966 -5.68,-9.92 -0.823,-4.661 0.133,-8.944 2.867,-12.849 2.734,-3.904 6.432,-6.267 11.093,-7.089 4.66,-0.822 8.943,0.134 12.848,2.868 3.904,2.734 6.267,6.432 7.09,11.093 0.697,3.954 0.048,7.71 -1.946,11.265 z M 39.969,33 c -2.825,0.498 -5.052,1.91 -6.68,4.236 -1.63,2.326 -2.194,4.901 -1.696,7.726 0.498,2.825 1.91,5.052 4.236,6.68 2.326,1.63 4.901,2.195 7.726,1.697 2.825,-0.499 5.052,-1.91 6.68,-4.237 1.63,-2.326 2.195,-4.901 1.697,-7.726 -0.498,-2.825 -1.91,-5.052 -4.237,-6.68 C 45.369,33.066 42.794,32.502 39.969,33 Z M 63.642,68.147 63.119,65.18 c -0.323,-1.836 -1.18,-3.396 -2.572,-4.68 -1.392,-1.283 -3.055,-2.046 -4.991,-2.287 l -4.673,-0.487 c -1.828,1.196 -3.872,1.994 -6.132,2.392 -2.26,0.399 -4.453,0.349 -6.58,-0.15 l -4.225,2.055 c -1.737,0.89 -3.04,2.175 -3.908,3.857 -0.868,1.682 -1.14,3.441 -0.817,5.278 l 0.523,2.966 a 2.49,2.49 0 0 0 1.06,1.67 2.49,2.49 0 0 0 1.93,0.424 l 28.814,-5.08 a 2.49,2.49 0 0 0 1.67,-1.06 2.49,2.49 0 0 0 0.424,-1.931 z m 332.922,17.321 a 7.168,7.168 0 0 1 -0.009,-0.352 c 0,-1.245 0.293,-2.33 0.877,-3.254 0.585,-0.924 1.292,-1.593 2.122,-2.008 a 72.218,72.218 0 0 0 3.847,-8.006 113.796,113.796 0 0 0 3.112,-8.742 l 8.374,-1.131 c 0.189,4.828 0.51,10.052 0.962,15.672 0.189,2.263 0.283,3.904 0.283,4.923 0,2.3 -0.585,4.187 -1.754,5.658 -1.17,1.47 -2.612,2.527 -4.328,3.168 -1.717,0.642 -3.461,0.962 -5.234,0.962 -1.81,0 -3.338,-0.349 -4.583,-1.047 -1.245,-0.697 -2.169,-1.603 -2.772,-2.715 a 8.19,8.19 0 0 1 -0.146,-0.281 c -2.103,2.47 -4.752,3.704 -7.945,3.704 -1.547,0 -2.801,-0.415 -3.763,-1.245 -0.962,-0.83 -1.556,-2.037 -1.782,-3.621 -0.981,1.509 -2.16,2.753 -3.537,3.734 -1.376,0.98 -2.989,1.471 -4.837,1.471 -2.15,0 -3.942,-0.735 -5.375,-2.206 -1.434,-1.472 -2.15,-3.773 -2.15,-6.903 0,-2.792 0.556,-5.724 1.669,-8.799 1.112,-3.074 2.772,-5.676 4.979,-7.808 2.206,-2.13 4.837,-3.196 7.893,-3.196 1.546,0 2.697,0.264 3.451,0.792 0.755,0.528 1.132,1.226 1.132,2.093 v 0.227 l 2.772,-13.014 8.374,-1.132 -6.507,30.554 a 7.003,7.003 0 0 0 -0.226,1.81 c 0,0.755 0.18,1.292 0.538,1.613 0.358,0.32 0.952,0.48 1.782,0.48 1.056,0 1.97,-0.452 2.744,-1.357 z m -50.7,3.597 c -0.411,0.432 -0.837,0.803 -1.278,1.115 -2.056,1.452 -4.12,2.178 -6.195,2.178 -1.585,0 -2.858,-0.443 -3.82,-1.33 -0.961,-0.886 -1.537,-2.178 -1.725,-3.875 -1.094,1.546 -2.31,2.8 -3.65,3.762 -1.339,0.962 -2.932,1.443 -4.78,1.443 -2.15,0 -3.942,-0.735 -5.376,-2.206 -1.062,-1.09 -1.73,-2.636 -2.005,-4.637 -3.695,4.562 -8.043,6.843 -13.045,6.843 -2.791,0 -4.96,-0.726 -6.507,-2.178 -1.546,-1.452 -2.32,-3.725 -2.32,-6.818 0,-2.603 0.519,-5.47 1.556,-8.6 1.038,-3.131 2.697,-5.838 4.98,-8.12 2.281,-2.282 5.176,-3.423 8.684,-3.423 2.264,0 3.876,0.49 4.838,1.471 0.962,0.981 1.443,2.226 1.443,3.735 0,1.32 -0.283,2.338 -0.849,3.055 -0.566,0.717 -1.282,1.075 -2.15,1.075 -0.641,0 -1.301,-0.226 -1.98,-0.679 0.452,-1.245 0.679,-2.357 0.679,-3.338 0,-0.717 -0.132,-1.283 -0.396,-1.698 -0.264,-0.415 -0.66,-0.622 -1.189,-0.622 -1.131,0 -2.263,0.924 -3.394,2.772 -1.132,1.849 -2.056,4.093 -2.773,6.734 -0.716,2.64 -1.075,5.016 -1.075,7.129 0,1.848 0.32,3.102 0.962,3.762 0.641,0.66 1.679,0.99 3.112,0.99 2.037,0 3.781,-0.471 5.234,-1.414 1.246,-0.81 2.598,-1.98 4.053,-3.513 0.07,-2.62 0.624,-5.362 1.661,-8.228 1.113,-3.074 2.773,-5.676 4.98,-7.808 2.206,-2.13 4.837,-3.196 7.892,-3.196 1.547,0 2.697,0.264 3.452,0.792 0.754,0.528 1.131,1.226 1.131,2.093 v 0.396 l 0.623,-2.999 h 8.147 l -4.074,19.238 a 7.003,7.003 0 0 0 -0.226,1.81 c 0,1.622 0.773,2.433 2.32,2.433 1.056,0 1.97,-0.49 2.744,-1.47 0.767,-0.973 1.376,-2.243 1.828,-3.809 l 3.858,-18.202 h 8.148 l -0.736,3.508 c 1.283,-1.131 2.443,-1.999 3.48,-2.602 a 6.58,6.58 0 0 1 3.367,-0.906 c 1.207,0 2.16,0.415 2.857,1.245 0.698,0.83 1.047,1.83 1.047,2.999 a 4.282,4.282 0 0 1 -1.075,2.886 c -0.717,0.83 -1.717,1.244 -3,1.244 -0.829,0 -1.385,-0.198 -1.668,-0.594 -0.283,-0.396 -0.5,-0.971 -0.65,-1.725 -0.114,-0.49 -0.227,-0.85 -0.34,-1.075 -0.114,-0.227 -0.321,-0.34 -0.623,-0.34 -0.792,0 -1.461,0.16 -2.008,0.481 -0.547,0.32 -1.255,0.877 -2.122,1.67 l -4.527,21.5 h -8.147 l 0.626,-2.954 z m -87.31,-1.726 c -0.84,1.225 -1.763,2.172 -2.77,2.84 -2.188,1.453 -4.357,2.18 -6.507,2.18 -1.81,0 -3.273,-0.567 -4.385,-1.698 -0.78,-0.793 -1.287,-1.864 -1.52,-3.213 -0.82,1.172 -1.718,2.083 -2.696,2.732 -2.187,1.452 -4.356,2.178 -6.506,2.178 -1.81,0 -3.272,-0.566 -4.385,-1.697 -1.113,-1.132 -1.67,-2.83 -1.67,-5.093 0,-0.943 0.152,-2.168 0.453,-3.677 l 3.848,-18.163 h 8.147 l -4.073,19.238 a 7.003,7.003 0 0 0 -0.227,1.81 c 0,0.755 0.18,1.292 0.538,1.613 0.358,0.32 0.952,0.48 1.782,0.48 1.094,0 2.112,-0.461 3.055,-1.385 0.943,-0.925 1.622,-2.122 2.037,-3.593 l 6.054,-28.347 8.374,-1.132 -6.507,30.554 a 7.003,7.003 0 0 0 -0.226,1.81 c 0,0.755 0.18,1.292 0.538,1.613 0.358,0.32 0.952,0.48 1.782,0.48 1.094,0 2.112,-0.461 3.055,-1.385 a 7.169,7.169 0 0 0 1.251,-1.653 c -0.004,-0.154 -0.006,-0.31 -0.006,-0.47 0,-2.602 0.51,-5.469 1.528,-8.6 1.018,-3.13 2.678,-5.837 4.979,-8.119 2.3,-2.282 5.224,-3.423 8.77,-3.423 4.149,0 6.224,1.81 6.224,5.432 0,2.112 -0.604,4.055 -1.811,5.828 -1.207,1.773 -2.81,3.197 -4.81,4.272 a 15.53,15.53 0 0 1 -6.393,1.838 c -0.075,0.83 -0.113,1.396 -0.113,1.698 0,3.13 1.17,4.696 3.508,4.696 1.056,0 2.188,-0.283 3.395,-0.849 a 13.7,13.7 0 0 0 3.281,-2.15 c -1.018,5.583 -4.28,8.374 -9.788,8.374 -2.754,0 -4.904,-0.726 -6.45,-2.178 -0.784,-0.736 -1.37,-1.683 -1.756,-2.84 z m -42.731,-16.079 1.995,-9.455 c 1.018,-4.678 2.716,-7.874 5.092,-9.59 2.377,-1.717 5.092,-2.575 8.148,-2.575 2.829,0 5.224,0.471 7.186,1.415 1.961,0.943 2.942,2.64 2.942,5.092 0,1.584 -0.425,2.744 -1.273,3.48 -0.85,0.735 -1.915,1.103 -3.197,1.103 -0.98,0 -1.792,-0.236 -2.433,-0.708 -0.641,-0.471 -0.962,-1.254 -0.962,-2.348 0,-0.716 0.18,-1.358 0.538,-1.923 0.358,-0.566 0.82,-0.849 1.386,-0.849 0.264,0 0.415,0.019 0.452,0.057 -0.037,-0.755 -0.33,-1.32 -0.877,-1.698 -0.547,-0.377 -1.291,-0.566 -2.235,-0.566 -1.66,0 -2.989,0.604 -3.988,1.81 -1,1.208 -1.67,2.736 -2.009,4.584 l -0.962,4.64 h 4.527 l -0.453,2.263 h -4.527 l -6.45,30.553 c -0.754,3.546 -2.055,6.035 -3.904,7.469 -1.848,1.433 -3.866,2.15 -6.054,2.15 -2.074,0 -3.762,-0.575 -5.064,-1.726 -1.301,-1.15 -1.952,-2.688 -1.952,-4.611 0,-1.585 0.453,-2.886 1.358,-3.904 0.905,-1.019 2.018,-1.83 3.338,-2.433 1.32,-0.604 3.018,-1.245 5.093,-1.924 l 3.734,-17.697 a 22.588,22.588 0 0 1 -4.866,1.345 c -0.302,3.433 -1.075,6.432 -2.32,8.997 -1.245,2.565 -2.848,4.545 -4.81,5.94 -1.96,1.396 -4.092,2.094 -6.393,2.094 -2.791,0 -4.998,-0.717 -6.62,-2.15 -1.622,-1.433 -2.433,-3.697 -2.433,-6.79 0,-2.565 0.529,-5.413 1.585,-8.543 1.056,-3.131 2.753,-5.838 5.092,-8.12 2.339,-2.282 5.28,-3.423 8.826,-3.423 4.829,0 7.243,3.018 7.243,9.053 v 0.057 c 0.113,0.037 0.32,0.056 0.622,0.056 1.245,0 2.678,-0.33 4.3,-0.99 0.11,-0.044 0.217,-0.09 0.325,-0.135 z m -70.654,-9.625 h 8.147 l -0.905,4.244 c 1.886,-1.622 4.093,-2.433 6.62,-2.433 2.112,0 3.791,0.697 5.036,2.093 1.245,1.396 1.867,3.678 1.867,6.846 0,2.98 -0.434,5.988 -1.301,9.025 -0.868,3.036 -2.34,5.62 -4.414,7.751 -2.074,2.132 -4.809,3.197 -8.204,3.197 -2.414,0 -4.017,-0.679 -4.81,-2.037 l -2.941,13.806 -8.544,2.037 z m 26.027,2.093 h 8.147 l -0.735,3.508 c 1.282,-1.131 2.442,-1.999 3.48,-2.602 a 6.58,6.58 0 0 1 3.366,-0.906 c 1.207,0 2.16,0.415 2.857,1.245 0.698,0.83 1.047,1.83 1.047,2.999 a 4.282,4.282 0 0 1 -1.075,2.886 c -0.717,0.83 -1.716,1.244 -2.999,1.244 -0.83,0 -1.386,-0.198 -1.669,-0.594 -0.283,-0.396 -0.5,-0.971 -0.65,-1.725 -0.114,-0.49 -0.227,-0.85 -0.34,-1.075 -0.113,-0.227 -0.32,-0.34 -0.622,-0.34 -0.792,0 -1.462,0.16 -2.009,0.481 -0.547,0.32 -1.254,0.877 -2.122,1.67 l -4.526,21.5 h -8.148 l 5.998,-28.29 z m 110.388,11.26 H 292.9 l -0.962,4.47 H 280.566 Z M 150.261,87.436 c 1.81,0 3.31,-0.849 4.498,-2.546 1.188,-1.698 2.056,-3.725 2.603,-6.083 0.547,-2.357 0.82,-4.555 0.82,-6.591 0,-3.131 -0.943,-4.697 -2.829,-4.697 -0.679,0 -1.367,0.246 -2.065,0.736 -0.698,0.49 -1.31,1.17 -1.839,2.037 l -3.338,15.842 c 0.302,0.868 1.019,1.302 2.15,1.302 z m 48.886,-0.283 c 0.905,0 1.81,-0.519 2.715,-1.556 0.906,-1.038 1.698,-2.452 2.377,-4.244 0.679,-1.791 1.17,-3.781 1.47,-5.969 -1.018,-0.226 -1.527,-1.018 -1.527,-2.376 0,-1.547 0.585,-2.565 1.754,-3.056 -0.075,-1.244 -0.264,-2.103 -0.566,-2.574 -0.301,-0.472 -0.83,-0.707 -1.584,-0.707 -1.245,0 -2.452,0.905 -3.621,2.716 -1.17,1.81 -2.112,3.979 -2.829,6.506 -0.717,2.528 -1.075,4.753 -1.075,6.677 0,1.81 0.207,3.027 0.622,3.65 0.415,0.622 1.17,0.933 2.264,0.933 z m 8.034,13.975 c 0.641,0 1.273,-0.358 1.895,-1.075 0.623,-0.717 1.085,-1.83 1.387,-3.338 l 0.679,-3.282 c -1.924,0.604 -3.452,1.368 -4.583,2.292 -1.132,0.924 -1.698,1.97 -1.698,3.14 0,0.83 0.264,1.414 0.792,1.754 0.528,0.34 1.038,0.51 1.528,0.51 z m 59.692,-23.254 c 1.434,-0.038 2.782,-0.51 4.046,-1.415 1.263,-0.905 2.282,-2.065 3.055,-3.48 0.773,-1.414 1.16,-2.895 1.16,-4.441 0,-1.547 -0.472,-2.32 -1.415,-2.32 -1.32,0 -2.63,1.198 -3.932,3.593 -1.301,2.395 -2.273,5.083 -2.914,8.063 z m 61.22,8.996 c 0.943,0 1.877,-0.443 2.8,-1.33 0.925,-0.886 1.557,-2.103 1.896,-3.65 l 2.716,-12.786 c 0,-0.49 -0.189,-0.972 -0.566,-1.443 -0.377,-0.472 -0.962,-0.707 -1.754,-0.707 -1.509,0 -2.866,0.877 -4.073,2.63 -1.208,1.755 -2.15,3.867 -2.83,6.338 -0.678,2.47 -1.018,4.649 -1.018,6.535 0,1.886 0.274,3.093 0.82,3.62 0.547,0.529 1.217,0.793 2.01,0.793 z m 51.035,0 c 0.906,0 1.82,-0.415 2.745,-1.245 0.924,-0.83 1.556,-1.98 1.895,-3.451 v -0.283 l 2.773,-12.957 c -0.34,-1.32 -1.113,-1.98 -2.32,-1.98 -1.51,0 -2.867,0.877 -4.074,2.63 -1.207,1.755 -2.15,3.867 -2.83,6.338 -0.678,2.47 -1.018,4.649 -1.018,6.535 0,1.886 0.274,3.093 0.82,3.62 0.548,0.529 1.217,0.793 2.01,0.793 z m 23.877,1.018 c 1.396,0 2.565,-0.415 3.508,-1.244 0.943,-0.83 1.415,-2.17 1.415,-4.018 0,-1.131 -0.113,-2.716 -0.34,-4.752 -0.377,-4.3 -0.622,-7.186 -0.735,-8.657 -0.905,2.98 -2.433,6.544 -4.583,10.693 0.867,0.453 1.301,1.113 1.301,1.98 0,0.717 -0.236,1.359 -0.707,1.925 -0.472,0.565 -1.066,0.848 -1.782,0.848 -0.792,0 -1.302,-0.245 -1.528,-0.735 0,1.358 0.273,2.357 0.82,2.998 0.547,0.642 1.424,0.962 2.631,0.962 z M 309.658,39.454 c -0.726,1.165 -1.494,2.062 -2.306,2.689 -1.829,1.414 -3.724,2.122 -5.686,2.122 -2.3,0 -3.989,-0.613 -5.064,-1.84 -1.075,-1.225 -1.612,-2.743 -1.612,-4.554 0,-0.792 0.094,-1.688 0.283,-2.687 0.188,-1 0.386,-1.971 0.594,-2.914 0.207,-0.943 0.349,-1.547 0.424,-1.81 0.302,-1.321 0.585,-2.622 0.849,-3.905 0.264,-1.282 0.396,-2.32 0.396,-3.112 0,-1.924 -0.68,-2.885 -2.037,-2.885 -0.98,0 -1.848,0.48 -2.603,1.442 -0.754,0.962 -1.358,2.216 -1.81,3.763 l -3.848,18.162 h -8.147 l 4.13,-19.52 a 5.81,5.81 0 0 0 0.17,-1.414 c 0,-1.66 -0.566,-2.49 -1.698,-2.49 -1.056,0 -1.97,0.48 -2.744,1.443 -0.773,0.962 -1.386,2.235 -1.839,3.819 l -3.847,18.162 h -8.148 l 3.837,-18.1 a 22.655,22.655 0 0 1 -4.742,1.296 c -0.302,3.432 -1.075,6.431 -2.32,8.996 -1.245,2.565 -2.848,4.545 -4.81,5.941 -1.96,1.396 -4.092,2.094 -6.393,2.094 -2.791,0 -4.998,-0.717 -6.62,-2.15 -1.31,-1.159 -2.092,-2.86 -2.343,-5.102 a 34.1,34.1 0 0 1 -5.578,3.97 c -1.094,1.17 -2.442,2.027 -4.045,2.574 -1.603,0.547 -3.216,0.82 -4.838,0.82 -1.81,0 -3.338,-0.348 -4.583,-1.046 -1.245,-0.698 -2.169,-1.603 -2.772,-2.716 a 7.507,7.507 0 0 1 -0.722,-1.88 c -3.465,3.762 -7.467,5.643 -12.009,5.643 -2.791,0 -4.96,-0.726 -6.507,-2.179 -1.546,-1.452 -2.32,-3.724 -2.32,-6.818 0,-2.602 0.51,-5.469 1.528,-8.6 1.019,-3.13 2.678,-5.837 4.98,-8.119 2.3,-2.282 5.223,-3.423 8.77,-3.423 4.148,0 6.223,1.81 6.223,5.432 0,2.112 -0.604,4.054 -1.81,5.827 -1.208,1.773 -2.81,3.197 -4.81,4.272 a 15.53,15.53 0 0 1 -6.393,1.839 c -0.076,1.132 -0.114,1.886 -0.114,2.263 0,1.849 0.321,3.103 0.962,3.763 0.641,0.66 1.679,0.99 3.112,0.99 2.037,0 3.782,-0.472 5.234,-1.415 0.978,-0.635 2.021,-1.493 3.129,-2.574 a 5.503,5.503 0 0 1 0.718,-1.754 c 0.585,-0.924 1.292,-1.594 2.122,-2.009 a 72.218,72.218 0 0 0 3.847,-8.006 113.796,113.796 0 0 0 3.112,-8.741 l 8.374,-1.132 c 0.189,4.828 0.51,10.052 0.962,15.673 0.189,2.263 0.283,3.904 0.283,4.922 0,0.868 -0.075,1.585 -0.226,2.15 1.333,-0.766 2.432,-1.49 3.296,-2.17 0.093,-2.365 0.616,-4.961 1.57,-7.788 1.056,-3.13 2.753,-5.837 5.092,-8.119 2.339,-2.282 5.28,-3.423 8.826,-3.423 4.829,0 7.243,3.017 7.243,9.053 v 0.056 c 0.113,0.038 0.32,0.057 0.622,0.057 1.245,0 2.678,-0.33 4.3,-0.99 l 0.203,-0.084 1.608,-7.583 h 8.147 l -0.622,2.942 c 1.924,-2.15 4.225,-3.225 6.903,-3.225 3.32,0 5.262,1.622 5.827,4.866 2.075,-3.206 4.697,-4.81 7.865,-4.81 1.924,0 3.452,0.529 4.583,1.585 1.132,1.056 1.698,2.66 1.698,4.81 0,1.093 -0.132,2.31 -0.396,3.649 a 93.928,93.928 0 0 1 -1.132,4.894 98.715,98.715 0 0 0 -0.82,3.423 c -0.246,1.113 -0.368,1.99 -0.368,2.631 0,0.754 0.17,1.34 0.509,1.754 0.34,0.415 0.924,0.622 1.754,0.622 1.132,0 2.037,-0.405 2.716,-1.216 0.416,-0.497 0.831,-1.16 1.247,-1.988 -0.002,-0.1 -0.002,-0.202 -0.002,-0.304 0,-2.602 0.509,-5.469 1.527,-8.6 1.019,-3.13 2.678,-5.837 4.98,-8.119 2.3,-2.282 5.224,-3.423 8.77,-3.423 4.148,0 6.223,1.81 6.223,5.432 0,2.112 -0.603,4.054 -1.81,5.827 -1.208,1.773 -2.81,3.197 -4.81,4.272 a 15.53,15.53 0 0 1 -6.393,1.839 c -0.076,0.83 -0.114,1.396 -0.114,1.697 0,3.131 1.17,4.697 3.508,4.697 1.057,0 2.188,-0.283 3.395,-0.85 a 13.7,13.7 0 0 0 3.282,-2.15 c -1.019,5.583 -4.281,8.375 -9.788,8.375 -2.754,0 -4.904,-0.726 -6.45,-2.179 -0.737,-0.691 -1.298,-1.568 -1.684,-2.632 z M 136.225,50.375 c -1.395,0 -2.621,-0.113 -3.677,-0.34 -1.057,-0.225 -1.971,-0.772 -2.745,-1.64 -0.773,-0.867 -1.16,-2.207 -1.16,-4.017 0,-2.527 0.764,-5.922 2.292,-10.185 1.528,-4.262 3.536,-8.543 6.026,-12.843 -1.886,0.113 -3.376,0.396 -4.47,0.848 -1.094,0.453 -1.81,1.15 -2.15,2.094 0.15,0 0.311,0.188 0.48,0.566 0.17,0.377 0.255,0.773 0.255,1.188 0,0.679 -0.301,1.216 -0.905,1.612 -0.603,0.396 -1.358,0.594 -2.263,0.594 -1.056,0 -1.905,-0.282 -2.546,-0.848 -0.641,-0.566 -0.962,-1.377 -0.962,-2.433 0,-1.283 0.5,-2.452 1.5,-3.508 0.999,-1.056 2.385,-1.896 4.158,-2.518 1.773,-0.622 3.734,-0.934 5.884,-0.934 0.793,0 1.773,0.057 2.943,0.17 3.093,-4.903 6.365,-8.911 9.816,-12.023 3.452,-3.112 6.743,-4.668 9.874,-4.668 1.81,0 3.3,0.264 4.47,0.792 l -8.884,41.643 h -8.147 l 4.356,-20.538 c -1.395,-0.642 -2.678,-1.113 -3.847,-1.415 a 22.686,22.686 0 0 0 -3.734,-0.622 96.53,96.53 0 0 0 -5.29,14.23 c -1.377,4.847 -2.066,8.722 -2.066,11.627 0,1.433 0.264,2.49 0.792,3.168 z m 31.063,-6.11 c -1.81,0 -3.272,-0.566 -4.385,-1.698 -1.113,-1.131 -1.67,-2.829 -1.67,-5.092 0,-0.943 0.152,-2.169 0.453,-3.678 l 3.848,-18.162 h 8.147 l -4.073,19.237 a 5.81,5.81 0 0 0 -0.17,1.415 c 0,1.66 0.566,2.49 1.697,2.49 1.057,0 1.962,-0.444 2.716,-1.33 0.755,-0.887 1.358,-2.103 1.81,-3.65 l 3.848,-18.162 h 8.148 l -4.074,19.237 c -0.189,0.943 -0.283,1.622 -0.283,2.037 0,1.245 0.641,1.867 1.924,1.867 1.735,0 3.347,-1.093 4.837,-3.281 1.49,-2.188 2.688,-4.79 3.593,-7.808 0.906,-3.018 1.358,-5.62 1.358,-7.808 -0.075,0.188 -0.32,0.33 -0.735,0.424 a 4.956,4.956 0 0 1 -1.075,0.141 c -0.642,0 -1.141,-0.301 -1.5,-0.905 a 3.808,3.808 0 0 1 -0.537,-1.98 c 0,-0.905 0.292,-1.641 0.877,-2.207 0.584,-0.566 1.461,-0.849 2.63,-0.849 1.246,0 2.15,0.463 2.717,1.387 0.565,0.924 0.848,2.103 0.848,3.536 0,3.395 -0.584,7.025 -1.754,10.892 -1.169,3.866 -2.96,7.157 -5.375,9.873 -2.414,2.716 -5.413,4.074 -8.996,4.074 -1.848,0 -3.357,-0.396 -4.527,-1.188 -1.169,-0.793 -1.923,-1.98 -2.263,-3.565 -2.112,3.168 -4.79,4.753 -8.034,4.753 z M 154.16,5.507 c -1.622,0.868 -3.31,2.48 -5.064,4.838 -1.754,2.357 -3.46,5.215 -5.12,8.572 2.716,0.528 5.017,1.188 6.903,1.98 z m 53.13,24.273 c 1.395,-0.075 2.724,-0.566 3.988,-1.47 a 10.361,10.361 0 0 0 3.055,-3.452 c 0.774,-1.396 1.16,-2.867 1.16,-4.414 0,-1.546 -0.471,-2.32 -1.414,-2.32 -1.358,0 -2.688,1.189 -3.99,3.565 -1.3,2.377 -2.234,5.074 -2.8,8.091 z m 18.161,10.015 c 1.396,0 2.565,-0.415 3.508,-1.245 0.943,-0.83 1.415,-2.169 1.415,-4.017 0,-1.132 -0.113,-2.716 -0.34,-4.753 -0.377,-4.3 -0.622,-7.186 -0.735,-8.657 -0.905,2.98 -2.433,6.545 -4.583,10.694 0.867,0.453 1.301,1.113 1.301,1.98 0,0.717 -0.236,1.358 -0.707,1.924 -0.472,0.566 -1.066,0.849 -1.782,0.849 -0.792,0 -1.302,-0.245 -1.528,-0.736 0,1.358 0.274,2.358 0.82,2.999 0.547,0.641 1.424,0.962 2.631,0.962 z m 27.498,-0.736 c 0.906,0 1.811,-0.518 2.716,-1.556 0.906,-1.037 1.698,-2.451 2.377,-4.243 0.679,-1.792 1.169,-3.782 1.47,-5.97 -1.018,-0.226 -1.527,-1.018 -1.527,-2.376 0,-1.546 0.585,-2.565 1.754,-3.055 -0.075,-1.245 -0.264,-2.103 -0.566,-2.574 -0.301,-0.472 -0.83,-0.708 -1.584,-0.708 -1.245,0 -2.452,0.906 -3.621,2.716 -1.17,1.81 -2.112,3.98 -2.83,6.507 -0.716,2.527 -1.074,4.753 -1.074,6.676 0,1.81 0.207,3.027 0.622,3.65 0.415,0.622 1.17,0.933 2.263,0.933 z m 64.955,-9.279 c 1.433,-0.038 2.782,-0.51 4.045,-1.414 1.264,-0.906 2.282,-2.066 3.055,-3.48 0.774,-1.415 1.16,-2.895 1.16,-4.442 0,-1.546 -0.471,-2.32 -1.414,-2.32 -1.32,0 -2.631,1.198 -3.932,3.593 -1.302,2.396 -2.273,5.083 -2.914,8.063 z" />
  <path
     style="fill:#114e4e;fill-rule:evenodd"
     inkscape:connector-curvature="0"
     id="path12"
     d="m 395.146,84.05 a 7.168,7.168 0 0 1 -0.009,-0.352 c 0,-1.245 0.293,-2.329 0.877,-3.253 0.585,-0.924 1.292,-1.594 2.122,-2.009 a 72.218,72.218 0 0 0 3.847,-8.006 113.796,113.796 0 0 0 3.112,-8.742 l 8.374,-1.131 c 0.189,4.828 0.51,10.052 0.962,15.673 0.189,2.263 0.283,3.904 0.283,4.922 0,2.301 -0.585,4.187 -1.754,5.658 -1.17,1.471 -2.612,2.527 -4.328,3.169 -1.717,0.64 -3.461,0.962 -5.234,0.962 -1.81,0 -3.338,-0.35 -4.583,-1.047 -1.245,-0.698 -2.169,-1.603 -2.773,-2.716 a 8.19,8.19 0 0 1 -0.145,-0.28 c -2.103,2.469 -4.752,3.703 -7.945,3.703 -1.547,0 -2.801,-0.415 -3.763,-1.245 -0.962,-0.83 -1.556,-2.037 -1.782,-3.62 -0.981,1.508 -2.16,2.753 -3.537,3.733 -1.376,0.981 -2.989,1.472 -4.837,1.472 -2.15,0 -3.942,-0.736 -5.375,-2.207 -1.434,-1.471 -2.15,-3.772 -2.15,-6.903 0,-2.791 0.556,-5.724 1.669,-8.798 1.112,-3.074 2.772,-5.677 4.979,-7.808 2.206,-2.131 4.837,-3.197 7.893,-3.197 1.546,0 2.697,0.264 3.451,0.792 0.755,0.528 1.132,1.226 1.132,2.094 v 0.226 l 2.772,-13.014 8.374,-1.131 -6.507,30.553 a 7.003,7.003 0 0 0 -0.226,1.81 c 0,0.755 0.18,1.293 0.537,1.613 0.359,0.32 0.953,0.481 1.783,0.481 1.056,0 1.97,-0.452 2.744,-1.358 l 0.037,-0.043 z m -50.7,3.597 c -0.411,0.432 -0.837,0.804 -1.278,1.115 -2.056,1.452 -4.12,2.179 -6.195,2.179 -1.585,0 -2.858,-0.444 -3.82,-1.33 -0.961,-0.887 -1.537,-2.178 -1.725,-3.876 -1.094,1.547 -2.31,2.8 -3.65,3.763 -1.339,0.962 -2.932,1.443 -4.78,1.443 -2.15,0 -3.942,-0.736 -5.376,-2.207 -1.062,-1.09 -1.73,-2.635 -2.006,-4.636 -3.694,4.562 -8.042,6.843 -13.044,6.843 -2.791,0 -4.96,-0.727 -6.507,-2.179 -1.546,-1.452 -2.32,-3.725 -2.32,-6.818 0,-2.602 0.519,-5.47 1.556,-8.6 1.038,-3.13 2.697,-5.837 4.98,-8.12 2.281,-2.281 5.176,-3.422 8.684,-3.422 2.264,0 3.876,0.49 4.838,1.47 0.962,0.981 1.443,2.226 1.443,3.735 0,1.32 -0.283,2.339 -0.849,3.055 -0.566,0.717 -1.282,1.075 -2.15,1.075 -0.641,0 -1.301,-0.226 -1.98,-0.679 0.452,-1.244 0.679,-2.357 0.679,-3.338 0,-0.716 -0.132,-1.282 -0.396,-1.697 -0.264,-0.415 -0.66,-0.623 -1.189,-0.623 -1.131,0 -2.263,0.925 -3.394,2.773 -1.132,1.848 -2.056,4.092 -2.773,6.733 -0.716,2.64 -1.075,5.017 -1.075,7.129 0,1.848 0.32,3.103 0.962,3.763 0.641,0.66 1.679,0.99 3.112,0.99 2.037,0 3.781,-0.472 5.234,-1.415 1.246,-0.81 2.597,-1.98 4.053,-3.513 0.07,-2.62 0.624,-5.362 1.661,-8.227 1.113,-3.074 2.773,-5.677 4.98,-7.808 2.206,-2.131 4.837,-3.197 7.892,-3.197 1.547,0 2.697,0.264 3.452,0.792 0.754,0.528 1.131,1.226 1.131,2.094 v 0.396 l 0.623,-3 h 8.147 l -4.074,19.238 a 7.003,7.003 0 0 0 -0.226,1.81 c 0,1.623 0.773,2.434 2.32,2.434 1.056,0 1.97,-0.49 2.744,-1.471 0.767,-0.973 1.376,-2.242 1.828,-3.809 l 3.858,-18.201 h 8.148 l -0.736,3.508 c 1.283,-1.132 2.443,-2 3.48,-2.603 a 6.58,6.58 0 0 1 3.367,-0.905 c 1.207,0 2.16,0.415 2.857,1.245 0.698,0.83 1.047,1.83 1.047,2.998 a 4.282,4.282 0 0 1 -1.075,2.886 c -0.717,0.83 -1.717,1.245 -3,1.245 -0.829,0 -1.385,-0.198 -1.668,-0.594 -0.283,-0.396 -0.5,-0.972 -0.65,-1.726 -0.114,-0.49 -0.227,-0.849 -0.34,-1.075 -0.114,-0.226 -0.321,-0.34 -0.623,-0.34 -0.792,0 -1.461,0.16 -2.008,0.481 -0.547,0.321 -1.255,0.877 -2.122,1.67 l -4.527,21.5 h -8.147 l 0.626,-2.954 z m -87.31,-1.725 c -0.84,1.224 -1.763,2.171 -2.77,2.84 -2.188,1.452 -4.357,2.179 -6.507,2.179 -1.81,0 -3.273,-0.566 -4.385,-1.698 -0.78,-0.793 -1.287,-1.864 -1.52,-3.213 -0.82,1.173 -1.718,2.083 -2.696,2.732 -2.187,1.452 -4.356,2.179 -6.506,2.179 -1.81,0 -3.273,-0.566 -4.385,-1.698 -1.113,-1.132 -1.67,-2.829 -1.67,-5.092 0,-0.943 0.151,-2.169 0.453,-3.678 l 3.848,-18.162 h 8.147 l -4.073,19.237 a 7.003,7.003 0 0 0 -0.227,1.81 c 0,0.755 0.18,1.293 0.538,1.613 0.358,0.32 0.952,0.481 1.782,0.481 1.094,0 2.112,-0.462 3.055,-1.386 0.943,-0.924 1.622,-2.122 2.037,-3.593 l 6.054,-28.347 8.374,-1.131 -6.507,30.553 a 7.003,7.003 0 0 0 -0.226,1.81 c 0,0.755 0.18,1.293 0.538,1.613 0.358,0.32 0.952,0.481 1.782,0.481 1.094,0 2.112,-0.462 3.055,-1.386 a 7.169,7.169 0 0 0 1.251,-1.653 c -0.004,-0.154 -0.006,-0.31 -0.006,-0.469 0,-2.602 0.51,-5.47 1.528,-8.6 1.018,-3.13 2.678,-5.837 4.979,-8.12 2.3,-2.281 5.224,-3.422 8.77,-3.422 4.149,0 6.224,1.81 6.224,5.431 0,2.113 -0.604,4.055 -1.811,5.828 -1.207,1.773 -2.81,3.197 -4.81,4.272 a 15.53,15.53 0 0 1 -6.393,1.839 c -0.075,0.83 -0.113,1.395 -0.113,1.697 0,3.131 1.17,4.696 3.508,4.696 1.056,0 2.188,-0.283 3.395,-0.848 a 13.7,13.7 0 0 0 3.281,-2.15 c -1.018,5.582 -4.28,8.374 -9.788,8.374 -2.754,0 -4.904,-0.727 -6.45,-2.179 -0.784,-0.736 -1.37,-1.683 -1.756,-2.84 z m -42.731,-16.08 1.995,-9.455 c 1.018,-4.677 2.716,-7.874 5.092,-9.59 2.377,-1.716 5.092,-2.575 8.148,-2.575 2.829,0 5.224,0.472 7.185,1.415 1.962,0.943 2.943,2.64 2.943,5.092 0,1.584 -0.425,2.744 -1.273,3.48 -0.85,0.735 -1.915,1.103 -3.197,1.103 -0.98,0 -1.792,-0.236 -2.433,-0.707 -0.641,-0.472 -0.962,-1.254 -0.962,-2.348 0,-0.717 0.18,-1.358 0.538,-1.924 0.358,-0.566 0.82,-0.849 1.386,-0.849 0.264,0 0.415,0.02 0.452,0.057 -0.037,-0.754 -0.33,-1.32 -0.877,-1.697 -0.547,-0.378 -1.292,-0.566 -2.235,-0.566 -1.66,0 -2.989,0.603 -3.988,1.81 -1,1.207 -1.67,2.735 -2.01,4.583 l -0.96,4.64 h 4.526 l -0.453,2.263 h -4.527 l -6.45,30.553 c -0.754,3.546 -2.055,6.036 -3.904,7.47 -1.848,1.432 -3.866,2.15 -6.054,2.15 -2.074,0 -3.762,-0.576 -5.064,-1.727 -1.301,-1.15 -1.952,-2.687 -1.952,-4.61 0,-1.585 0.453,-2.886 1.358,-3.905 0.905,-1.018 2.018,-1.83 3.338,-2.433 1.32,-0.603 3.018,-1.245 5.093,-1.924 l 3.734,-17.697 a 22.588,22.588 0 0 1 -4.866,1.346 c -0.302,3.432 -1.075,6.431 -2.32,8.996 -1.245,2.565 -2.848,4.545 -4.81,5.94 -1.96,1.397 -4.092,2.094 -6.393,2.094 -2.791,0 -4.998,-0.716 -6.62,-2.15 -1.622,-1.433 -2.433,-3.696 -2.433,-6.79 0,-2.564 0.529,-5.412 1.585,-8.543 1.056,-3.13 2.753,-5.837 5.092,-8.12 2.339,-2.281 5.28,-3.422 8.826,-3.422 4.829,0 7.243,3.017 7.243,9.053 v 0.056 c 0.113,0.038 0.32,0.057 0.622,0.057 1.245,0 2.678,-0.33 4.3,-0.99 l 0.325,-0.135 z m -70.654,-9.625 h 8.147 l -0.905,4.244 c 1.886,-1.622 4.093,-2.433 6.62,-2.433 2.112,0 3.79,0.698 5.036,2.093 1.244,1.396 1.867,3.678 1.867,6.847 0,2.98 -0.434,5.988 -1.301,9.024 -0.868,3.037 -2.34,5.62 -4.414,7.752 -2.074,2.13 -4.81,3.197 -8.204,3.197 -2.414,0 -4.017,-0.68 -4.81,-2.037 l -2.941,13.805 -8.544,2.037 z m 26.027,2.094 h 8.147 l -0.735,3.508 c 1.282,-1.132 2.442,-2 3.48,-2.603 a 6.58,6.58 0 0 1 3.366,-0.905 c 1.207,0 2.16,0.415 2.857,1.245 0.698,0.83 1.047,1.83 1.047,2.998 a 4.282,4.282 0 0 1 -1.075,2.886 c -0.717,0.83 -1.716,1.245 -2.999,1.245 -0.83,0 -1.386,-0.198 -1.669,-0.594 -0.283,-0.396 -0.5,-0.972 -0.65,-1.726 -0.114,-0.49 -0.227,-0.849 -0.34,-1.075 -0.113,-0.226 -0.32,-0.34 -0.622,-0.34 -0.792,0 -1.462,0.16 -2.009,0.481 -0.547,0.321 -1.254,0.877 -2.122,1.67 l -4.526,21.5 h -8.148 z m 110.388,11.26 h 11.316 l -0.962,4.47 H 279.148 Z M 148.843,86.017 c 1.81,0 3.31,-0.849 4.498,-2.546 1.188,-1.698 2.056,-3.725 2.603,-6.082 0.547,-2.358 0.82,-4.555 0.82,-6.592 0,-3.13 -0.943,-4.696 -2.829,-4.696 -0.679,0 -1.367,0.245 -2.065,0.735 -0.698,0.49 -1.31,1.17 -1.839,2.037 l -3.338,15.843 c 0.302,0.867 1.018,1.301 2.15,1.301 z m 48.885,-0.283 c 0.906,0 1.811,-0.519 2.716,-1.556 0.906,-1.037 1.698,-2.452 2.377,-4.243 0.679,-1.792 1.169,-3.782 1.47,-5.97 -1.018,-0.226 -1.527,-1.018 -1.527,-2.376 0,-1.546 0.585,-2.565 1.754,-3.055 -0.075,-1.245 -0.264,-2.103 -0.566,-2.575 -0.301,-0.471 -0.83,-0.707 -1.584,-0.707 -1.245,0 -2.452,0.905 -3.621,2.716 -1.17,1.81 -2.112,3.98 -2.83,6.507 -0.716,2.527 -1.074,4.752 -1.074,6.676 0,1.81 0.207,3.027 0.622,3.65 0.415,0.622 1.17,0.933 2.263,0.933 z m 8.035,13.975 c 0.641,0 1.273,-0.358 1.895,-1.075 0.623,-0.716 1.085,-1.829 1.387,-3.338 l 0.679,-3.281 c -1.924,0.603 -3.452,1.367 -4.583,2.291 -1.132,0.924 -1.698,1.97 -1.698,3.14 0,0.83 0.264,1.415 0.792,1.754 0.528,0.34 1.038,0.51 1.528,0.51 z m 59.692,-23.254 c 1.434,-0.038 2.782,-0.51 4.046,-1.415 1.263,-0.905 2.282,-2.065 3.055,-3.48 0.773,-1.414 1.16,-2.894 1.16,-4.44 0,-1.547 -0.472,-2.32 -1.415,-2.32 -1.32,0 -2.63,1.197 -3.932,3.592 -1.301,2.396 -2.273,5.083 -2.914,8.063 z m 61.22,8.996 c 0.943,0 1.877,-0.443 2.8,-1.33 0.925,-0.886 1.557,-2.102 1.896,-3.649 l 2.716,-12.787 c 0,-0.49 -0.189,-0.971 -0.566,-1.443 -0.377,-0.471 -0.962,-0.707 -1.754,-0.707 -1.509,0 -2.866,0.877 -4.074,2.63 -1.207,1.755 -2.15,3.867 -2.829,6.338 -0.679,2.47 -1.018,4.649 -1.018,6.535 0,1.886 0.273,3.093 0.82,3.621 0.547,0.528 1.217,0.792 2.009,0.792 z m 51.035,0 c 0.906,0 1.82,-0.415 2.745,-1.245 0.924,-0.83 1.556,-1.98 1.895,-3.45 v -0.284 l 2.772,-12.957 c -0.339,-1.32 -1.112,-1.98 -2.32,-1.98 -1.508,0 -2.866,0.877 -4.073,2.63 -1.207,1.755 -2.15,3.867 -2.83,6.338 -0.678,2.47 -1.018,4.649 -1.018,6.535 0,1.886 0.274,3.093 0.82,3.621 0.548,0.528 1.217,0.792 2.01,0.792 z m 23.877,1.019 c 1.396,0 2.565,-0.415 3.508,-1.245 0.943,-0.83 1.415,-2.169 1.415,-4.017 0,-1.132 -0.113,-2.716 -0.34,-4.753 -0.377,-4.3 -0.622,-7.186 -0.735,-8.657 -0.905,2.98 -2.433,6.545 -4.583,10.694 0.867,0.452 1.301,1.113 1.301,1.98 0,0.717 -0.236,1.358 -0.707,1.924 -0.472,0.566 -1.066,0.849 -1.782,0.849 -0.793,0 -1.302,-0.246 -1.528,-0.736 0,1.358 0.273,2.358 0.82,2.999 0.547,0.641 1.424,0.962 2.631,0.962 z M 308.244,38.037 c -0.726,1.165 -1.494,2.061 -2.306,2.688 -1.83,1.415 -3.725,2.122 -5.686,2.122 -2.3,0 -3.989,-0.613 -5.064,-1.839 -1.075,-1.226 -1.612,-2.744 -1.612,-4.554 0,-0.792 0.094,-1.688 0.282,-2.688 0.189,-1 0.387,-1.97 0.595,-2.914 0.207,-0.943 0.348,-1.546 0.424,-1.81 0.302,-1.32 0.585,-2.622 0.849,-3.904 0.264,-1.283 0.396,-2.32 0.396,-3.112 0,-1.924 -0.68,-2.886 -2.037,-2.886 -0.981,0 -1.849,0.481 -2.603,1.443 -0.754,0.962 -1.358,2.216 -1.81,3.762 l -3.848,18.163 h -8.148 l 4.13,-19.52 a 5.81,5.81 0 0 0 0.17,-1.415 c 0,-1.66 -0.565,-2.49 -1.697,-2.49 -1.056,0 -1.97,0.481 -2.744,1.443 -0.773,0.962 -1.386,2.235 -1.839,3.82 l -3.847,18.162 H 263.7 l 3.837,-18.1 a 22.655,22.655 0 0 1 -4.742,1.295 c -0.302,3.433 -1.075,6.432 -2.32,8.997 -1.245,2.565 -2.848,4.545 -4.81,5.94 -1.96,1.396 -4.092,2.094 -6.393,2.094 -2.791,0 -4.998,-0.717 -6.62,-2.15 -1.31,-1.158 -2.092,-2.859 -2.343,-5.102 a 34.1,34.1 0 0 1 -5.578,3.97 c -1.094,1.17 -2.442,2.028 -4.045,2.575 -1.604,0.547 -3.216,0.82 -4.838,0.82 -1.81,0 -3.338,-0.349 -4.583,-1.046 -1.245,-0.698 -2.169,-1.604 -2.773,-2.716 a 7.507,7.507 0 0 1 -0.722,-1.88 c -3.464,3.762 -7.466,5.642 -12.008,5.642 -2.791,0 -4.96,-0.726 -6.507,-2.178 -1.546,-1.452 -2.32,-3.725 -2.32,-6.818 0,-2.603 0.51,-5.47 1.528,-8.6 1.018,-3.131 2.678,-5.837 4.98,-8.12 2.3,-2.282 5.223,-3.423 8.77,-3.423 4.148,0 6.223,1.81 6.223,5.432 0,2.112 -0.604,4.055 -1.81,5.828 -1.208,1.773 -2.81,3.197 -4.81,4.272 a 15.53,15.53 0 0 1 -6.394,1.839 c -0.075,1.131 -0.113,1.886 -0.113,2.263 0,1.848 0.32,3.102 0.962,3.762 0.641,0.66 1.679,0.99 3.112,0.99 2.037,0 3.781,-0.471 5.234,-1.414 0.978,-0.636 2.021,-1.494 3.128,-2.575 a 5.503,5.503 0 0 1 0.72,-1.753 c 0.584,-0.925 1.291,-1.594 2.12,-2.009 a 72.218,72.218 0 0 0 3.848,-8.006 113.796,113.796 0 0 0 3.112,-8.742 l 8.374,-1.131 c 0.189,4.828 0.51,10.052 0.962,15.672 0.189,2.264 0.283,3.904 0.283,4.923 0,0.867 -0.075,1.584 -0.226,2.15 1.333,-0.766 2.432,-1.49 3.296,-2.17 0.093,-2.366 0.616,-4.962 1.57,-7.788 1.056,-3.131 2.753,-5.837 5.092,-8.12 2.338,-2.282 5.28,-3.423 8.826,-3.423 4.829,0 7.243,3.018 7.243,9.053 v 0.057 c 0.113,0.038 0.32,0.056 0.622,0.056 1.245,0 2.678,-0.33 4.3,-0.99 l 0.203,-0.083 1.608,-7.583 h 8.147 l -0.622,2.942 c 1.924,-2.15 4.224,-3.225 6.903,-3.225 3.319,0 5.262,1.622 5.827,4.866 2.075,-3.207 4.697,-4.81 7.865,-4.81 1.924,0 3.451,0.528 4.583,1.585 1.132,1.056 1.697,2.659 1.697,4.809 0,1.094 -0.132,2.31 -0.396,3.65 a 93.928,93.928 0 0 1 -1.131,4.893 98.715,98.715 0 0 0 -0.82,3.424 c -0.246,1.112 -0.368,1.99 -0.368,2.63 0,0.755 0.17,1.34 0.509,1.755 0.34,0.415 0.924,0.622 1.754,0.622 1.131,0 2.037,-0.406 2.716,-1.217 0.415,-0.496 0.831,-1.159 1.247,-1.988 -0.002,-0.1 -0.003,-0.201 -0.003,-0.303 0,-2.603 0.51,-5.47 1.528,-8.6 1.019,-3.131 2.678,-5.837 4.98,-8.12 2.3,-2.282 5.223,-3.423 8.77,-3.423 4.148,0 6.223,1.81 6.223,5.432 0,2.112 -0.604,4.055 -1.81,5.828 -1.208,1.773 -2.81,3.197 -4.81,4.272 a 15.53,15.53 0 0 1 -6.393,1.839 c -0.076,0.83 -0.114,1.395 -0.114,1.697 0,3.13 1.17,4.696 3.508,4.696 1.056,0 2.188,-0.283 3.395,-0.849 a 13.7,13.7 0 0 0 3.282,-2.15 c -1.019,5.583 -4.281,8.374 -9.789,8.374 -2.753,0 -4.903,-0.726 -6.45,-2.178 -0.736,-0.691 -1.297,-1.569 -1.683,-2.632 z m -173.433,10.92 c -1.395,0 -2.621,-0.112 -3.678,-0.339 -1.056,-0.226 -1.97,-0.773 -2.744,-1.64 -0.773,-0.868 -1.16,-2.207 -1.16,-4.018 0,-2.527 0.764,-5.922 2.292,-10.184 1.528,-4.262 3.536,-8.544 6.026,-12.844 -1.886,0.113 -3.376,0.396 -4.47,0.849 -1.094,0.453 -1.81,1.15 -2.15,2.093 0.15,0 0.311,0.189 0.48,0.566 0.17,0.377 0.255,0.773 0.255,1.188 0,0.68 -0.301,1.217 -0.905,1.613 -0.603,0.396 -1.358,0.594 -2.263,0.594 -1.056,0 -1.905,-0.283 -2.546,-0.849 -0.641,-0.565 -0.962,-1.376 -0.962,-2.433 0,-1.282 0.5,-2.451 1.5,-3.508 0.999,-1.056 2.385,-1.895 4.158,-2.517 1.773,-0.623 3.734,-0.934 5.884,-0.934 0.792,0 1.773,0.057 2.942,0.17 3.094,-4.904 6.366,-8.912 9.817,-12.024 3.453,-3.112 6.743,-4.667 9.873,-4.667 1.811,0 3.3,0.264 4.47,0.792 l -8.883,41.643 H 144.6 l 4.356,-20.539 c -1.395,-0.641 -2.678,-1.113 -3.847,-1.414 a 22.686,22.686 0 0 0 -3.734,-0.623 96.53,96.53 0 0 0 -5.29,14.23 c -1.378,4.847 -2.066,8.723 -2.066,11.627 0,1.434 0.264,2.49 0.792,3.169 z m 31.063,-6.11 c -1.81,0 -3.272,-0.566 -4.385,-1.697 -1.113,-1.132 -1.67,-2.83 -1.67,-5.092 0,-0.943 0.152,-2.17 0.453,-3.678 l 3.848,-18.162 h 8.147 l -4.073,19.237 a 5.81,5.81 0 0 0 -0.17,1.414 c 0,1.66 0.566,2.49 1.697,2.49 1.056,0 1.962,-0.443 2.716,-1.33 0.755,-0.886 1.358,-2.103 1.81,-3.65 l 3.848,-18.161 h 8.148 l -4.074,19.237 c -0.189,0.943 -0.283,1.622 -0.283,2.037 0,1.245 0.641,1.867 1.924,1.867 1.735,0 3.347,-1.094 4.837,-3.282 1.49,-2.187 2.688,-4.79 3.593,-7.808 0.905,-3.017 1.358,-5.62 1.358,-7.808 -0.075,0.189 -0.32,0.33 -0.735,0.424 a 4.956,4.956 0 0 1 -1.075,0.142 c -0.642,0 -1.141,-0.302 -1.5,-0.905 a 3.808,3.808 0 0 1 -0.537,-1.98 c 0,-0.906 0.292,-1.641 0.877,-2.207 0.584,-0.566 1.461,-0.849 2.63,-0.849 1.245,0 2.15,0.462 2.717,1.386 0.565,0.924 0.848,2.103 0.848,3.536 0,3.395 -0.584,7.026 -1.754,10.892 -1.17,3.867 -2.96,7.158 -5.375,9.873 -2.414,2.716 -5.413,4.074 -8.996,4.074 -1.848,0 -3.357,-0.396 -4.527,-1.188 -1.169,-0.792 -1.923,-1.98 -2.263,-3.564 -2.112,3.168 -4.79,4.752 -8.034,4.752 z M 152.747,4.09 c -1.622,0.867 -3.31,2.48 -5.064,4.837 -1.754,2.358 -3.46,5.215 -5.12,8.572 2.716,0.528 5.016,1.188 6.902,1.98 l 3.282,-15.39 z m 53.13,24.273 c 1.395,-0.076 2.724,-0.566 3.988,-1.471 a 10.361,10.361 0 0 0 3.055,-3.452 c 0.774,-1.395 1.16,-2.867 1.16,-4.413 0,-1.547 -0.471,-2.32 -1.414,-2.32 -1.358,0 -2.688,1.188 -3.99,3.565 -1.3,2.376 -2.234,5.073 -2.8,8.09 z m 18.161,10.014 c 1.396,0 2.565,-0.415 3.508,-1.244 0.943,-0.83 1.415,-2.17 1.415,-4.018 0,-1.131 -0.113,-2.715 -0.34,-4.752 -0.377,-4.3 -0.622,-7.186 -0.735,-8.657 -0.905,2.98 -2.433,6.544 -4.583,10.694 0.867,0.452 1.301,1.112 1.301,1.98 0,0.717 -0.236,1.358 -0.707,1.924 -0.472,0.565 -1.066,0.848 -1.782,0.848 -0.793,0 -1.302,-0.245 -1.528,-0.735 0,1.358 0.273,2.357 0.82,2.999 0.547,0.64 1.424,0.961 2.631,0.961 z m 27.498,-0.735 c 0.906,0 1.81,-0.519 2.716,-1.556 0.906,-1.037 1.698,-2.452 2.377,-4.244 0.679,-1.791 1.169,-3.781 1.47,-5.969 -1.018,-0.226 -1.527,-1.018 -1.527,-2.376 0,-1.547 0.585,-2.565 1.754,-3.056 -0.075,-1.244 -0.264,-2.102 -0.566,-2.574 -0.302,-0.471 -0.83,-0.707 -1.584,-0.707 -1.245,0 -2.452,0.905 -3.621,2.716 -1.17,1.81 -2.113,3.98 -2.83,6.506 -0.716,2.528 -1.074,4.753 -1.074,6.677 0,1.81 0.207,3.027 0.622,3.65 0.415,0.622 1.17,0.933 2.263,0.933 z m 64.955,-9.28 c 1.433,-0.037 2.781,-0.509 4.045,-1.414 1.264,-0.905 2.282,-2.065 3.055,-3.48 0.774,-1.414 1.16,-2.895 1.16,-4.441 0,-1.547 -0.471,-2.32 -1.414,-2.32 -1.32,0 -2.631,1.198 -3.933,3.593 -1.3,2.395 -2.272,5.083 -2.913,8.063 z" />
  <path
     style="fill:#f38181;fill-opacity:1;stroke-width:0.132626"
     d="m 72.825896,33.729185 c -0.982014,-0.425856 -1.38019,-1.029812 -1.666915,-2.528389 -0.258908,-1.353192 -0.240074,-1.981961 0.07912,-2.641327 0.563755,-1.164563 0.01976,-1.024462 12.564952,-3.235992 6.218367,-1.096205 11.525316,-1.993101 11.793222,-1.993101 0.692257,0 1.593497,0.478226 1.968145,1.044358 0.549477,0.830314 0.896331,3.258702 0.583656,4.086266 -0.17181,0.454733 -0.730151,1.061956 -1.20427,1.309701 -0.35517,0.18559 -22.682692,4.174135 -23.312859,4.164564 -0.187994,-0.0029 -0.550267,-0.09559 -0.805051,-0.20608 z"
     id="path843"
     inkscape:connector-curvature="0" />
  <path
     style="fill:#f38181;fill-opacity:0;stroke-width:0.132626"
     d="m 72.758636,33.72008 c -0.97029,-0.511523 -1.321265,-1.06427 -1.599655,-2.519284 -0.260918,-1.363695 -0.239904,-1.982311 0.09052,-2.664884 0.55013,-1.136417 0.04262,-1.006312 12.529694,-3.212093 6.206757,-1.096393 11.542845,-1.993443 11.857974,-1.993443 0.720375,0 1.597245,0.493712 1.981701,1.115774 0.518015,0.838166 0.831334,3.215193 0.529203,4.01485 -0.172707,0.457108 -0.730827,1.062322 -1.210997,1.31318 -0.390624,0.204075 -22.639835,4.169589 -23.345832,4.160966 -0.239103,-0.0029 -0.613778,-0.0997 -0.832611,-0.215066 z"
     id="path845"
     inkscape:connector-curvature="0" />
  <path
     style="fill:#fce38a;fill-opacity:1;stroke-width:0.132626"
     d="m 75.525158,47.763704 c -0.97029,-0.511523 -1.321265,-1.06427 -1.599655,-2.519284 -0.260918,-1.363695 -0.239904,-1.982311 0.09052,-2.664884 0.55013,-1.136417 0.04262,-1.006312 12.529693,-3.212093 C 92.752473,38.27105 98.088564,37.374 98.403694,37.374 c 0.72037,0 1.597246,0.493712 1.981706,1.115774 0.51801,0.838166 0.83133,3.215193 0.5292,4.01485 -0.17271,0.457108 -0.73083,1.062322 -1.211004,1.31318 -0.390622,0.204075 -22.639833,4.169589 -23.34583,4.160966 -0.239103,-0.0029 -0.613778,-0.0997 -0.832611,-0.215066 z"
     id="path845-3"
     inkscape:connector-curvature="0" />
  <path
     style="fill:#95e1d3;fill-opacity:1;stroke-width:0.132626"
     d="m 78.586166,61.424182 c -0.97029,-0.511523 -1.321265,-1.06427 -1.599655,-2.519284 -0.260918,-1.363695 -0.239904,-1.982311 0.09052,-2.664884 0.55013,-1.136417 0.04262,-1.006312 12.529693,-3.212093 6.206757,-1.096393 11.542846,-1.993443 11.857976,-1.993443 0.72037,0 1.59724,0.493712 1.9817,1.115774 0.51802,0.838166 0.83134,3.215193 0.52921,4.01485 -0.17271,0.457108 -0.73084,1.062322 -1.21101,1.31318 -0.39062,0.204075 -22.639829,4.169589 -23.345826,4.160966 -0.239103,-0.0029 -0.613778,-0.0997 -0.832611,-0.215066 z"
     id="path845-6"
     inkscape:connector-curvature="0" />
</svg>
